<mxfile host="65bd71144e">
    <diagram id="A9OtQfb9rir1FKwsWqq8" name="Page-1">
        <mxGraphModel dx="1334" dy="779" grid="1" gridSize="10" guides="1" tooltips="1" connect="1" arrows="1" fold="1" page="1" pageScale="1" pageWidth="850" pageHeight="1100" math="0" shadow="0">
            <root>
                <mxCell id="0"/>
                <mxCell id="1" parent="0"/>
                <mxCell id="2" value="TOOLS" style="rounded=1;whiteSpace=wrap;html=1;" vertex="1" parent="1">
                    <mxGeometry x="360" y="370" width="120" height="60" as="geometry"/>
                </mxCell>
                <mxCell id="3" value="&lt;ul&gt;&lt;li&gt;BOXICONS&lt;/li&gt;&lt;li&gt;BOOTSTRAP&lt;/li&gt;&lt;li&gt;HTML, CSS, and JAVASCRIPT&lt;/li&gt;&lt;li&gt;FREEPIK&lt;/li&gt;&lt;li&gt;CANVA&lt;/li&gt;&lt;/ul&gt;" style="rounded=0;whiteSpace=wrap;html=1;align=left;" vertex="1" parent="1">
                    <mxGeometry x="180" y="470" width="480" height="400" as="geometry"/>
                </mxCell>
            </root>
        </mxGraphModel>
    </diagram>
</mxfile>